<svg id="Layer_1" data-name="Layer 1" xmlns="http://www.w3.org/2000/svg" viewBox="0 0 500 500"><defs><style>.cls-1{fill:#d82f23;}.cls-2{fill:#62bb46;}.cls-3{fill:#59a33e;}.cls-4{fill:#296bd6;}.cls-5{fill:#473121;}.cls-6{fill:#aa734d;}.cls-7{fill:#7f543c;}.cls-8{fill:none;stroke:#000;stroke-linecap:round;stroke-linejoin:round;stroke-width:15px;}.cls-9{fill:#b70808;}.cls-10{fill:#2157a5;}.cls-11{fill:#ffc612;}.cls-12{fill:#f2a203;}</style></defs><title>bookshelf</title><rect class="cls-1" x="391.1" y="127.38" width="73.04" height="228.96" transform="translate(855.24 483.72) rotate(-180)"/><rect class="cls-2" x="285.98" y="62.55" width="73.04" height="293.79" transform="translate(645.01 418.89) rotate(-180)"/><rect class="cls-3" x="323.03" y="62.55" width="36" height="293.79"/><rect class="cls-1" x="169.86" y="23.37" width="82.75" height="332.97" transform="translate(422.47 379.72) rotate(-180)"/><rect class="cls-4" x="65.19" y="100.1" width="73.04" height="251.01" transform="translate(140.72 469.98) rotate(-164.8)"/><path class="cls-5" d="M101.64,398.65H51.13l7.09,61.44a18.68,18.68,0,0,0,18.55,16.54h0a18.69,18.69,0,0,0,18.59-16.78Z"/><path class="cls-5" d="M448.87,398.65H398.36l7.09,61.44A18.69,18.69,0,0,0,424,476.63h0a18.69,18.69,0,0,0,18.59-16.78Z"/><rect class="cls-6" x="7.87" y="356.34" width="484.27" height="42.3"/><rect class="cls-7" x="456.13" y="356.34" width="36" height="42.3"/><rect class="cls-8" x="7.87" y="356.34" width="484.27" height="42.3"/><path class="cls-8" d="M101.64,398.65H51.13l7.09,61.44a18.68,18.68,0,0,0,18.55,16.54h0a18.69,18.69,0,0,0,18.59-16.78Z"/><path class="cls-8" d="M448.87,398.65H398.36l7.09,61.44A18.69,18.69,0,0,0,424,476.63h0a18.69,18.69,0,0,0,18.59-16.78Z"/><rect class="cls-8" x="285.98" y="62.55" width="73.04" height="293.79" transform="translate(645.01 418.89) rotate(-180)"/><rect class="cls-9" x="428.14" y="127.38" width="36" height="228.96"/><rect class="cls-9" x="216.61" y="23.37" width="36" height="332.97"/><rect class="cls-10" x="-5.31" y="213.25" width="251.01" height="34.74" transform="translate(-133.87 286.15) rotate(-74.8)"/><rect class="cls-11" x="285.98" y="110.59" width="73.04" height="33.59" transform="translate(645.01 254.76) rotate(-180)"/><rect class="cls-12" x="323.03" y="110.59" width="36" height="33.59"/><rect class="cls-8" x="285.98" y="110.59" width="73.04" height="33.59" transform="translate(645.01 254.76) rotate(-180)"/><rect class="cls-11" x="391.1" y="127.38" width="73.04" height="37.2" transform="translate(855.24 291.96) rotate(-180)"/><rect class="cls-12" x="428.14" y="127.38" width="36" height="37.2"/><rect class="cls-11" x="391.1" y="319.14" width="73.04" height="37.2" transform="translate(855.24 675.48) rotate(-180)"/><rect class="cls-12" x="428.14" y="319.14" width="36" height="37.2"/><rect class="cls-8" x="391.1" y="127.38" width="73.04" height="37.2" transform="translate(855.24 291.96) rotate(-180)"/><rect class="cls-8" x="391.1" y="319.14" width="73.04" height="37.2" transform="translate(855.24 675.48) rotate(-180)"/><rect class="cls-8" x="391.1" y="127.38" width="73.04" height="228.96" transform="translate(855.24 483.72) rotate(-180)"/><rect class="cls-8" x="65.19" y="100.1" width="73.04" height="251.01" transform="translate(140.72 469.98) rotate(-164.8)"/><rect class="cls-11" x="49.49" y="265.26" width="73.04" height="36.25" transform="translate(94.73 579.42) rotate(-164.8)"/><rect class="cls-12" x="86.37" y="271.04" width="36.25" height="34.74" transform="translate(-201.22 313.64) rotate(-74.8)"/><rect class="cls-8" x="49.49" y="265.26" width="73.04" height="36.25" transform="translate(94.73 579.42) rotate(-164.8)"/><rect class="cls-8" x="169.86" y="23.37" width="82.75" height="332.97" transform="translate(422.47 379.72) rotate(-180)"/><rect class="cls-11" x="169.86" y="69.11" width="82.75" height="36.25" transform="translate(422.47 174.46) rotate(-180)"/><rect class="cls-12" x="216.61" y="69.11" width="36" height="36.25"/><rect class="cls-11" x="169.86" y="272.59" width="82.75" height="36.25" transform="translate(422.47 581.44) rotate(-180)"/><rect class="cls-12" x="216.61" y="272.59" width="36" height="36.25"/><rect class="cls-8" x="169.86" y="69.11" width="82.75" height="36.25" transform="translate(422.47 174.46) rotate(-180)"/><rect class="cls-8" x="169.86" y="272.59" width="82.75" height="36.25" transform="translate(422.47 581.44) rotate(-180)"/></svg>